<svg viewBox="7.3716880901837385 2.5572059346644664 772.5849885528413 536.8507529304237" xmlns="http://www.w3.org/2000/svg" xmlns:xlink="http://www.w3.org/1999/xlink" version="1.2"><defs><marker id="arrow-5-10--1" markerWidth="10" markerHeight="5" orient="auto" refX="0" refY="2.5" ><path id="path-arrow-5-10--1" class="arrow-path" d="M 10 0 L 10 5 L 0 2.5 Z" /></marker><symbol id="feature-symbol-3582471067" viewBox="0 0 15 15"><path d="M15 6.818V8.5l-6.5-1-.318 4.773L11 14v1l-3.5-.682L4 15v-1l2.818-1.727L6.5 7.5 0 8.5V6.818L6.5 4.5v-3s0-1.5 1-1.5 1 1.5 1 1.5v2.818l6.5 2.5z"/></symbol><symbol id="feature-symbol-4142036377" viewBox="0 0 15 15"><path d="M8.388 3.893S7.682 5 7 5H4.5c-.682 0-1.298.409-1.773.864L.5 8c-.269.258-.493.768-.5 1-.016.5 0 1 0 1s1 0 1-1v-.5l1-1h.5l.158.29s-.954 1.824-.954 3.528c0 .682.682.682.682.682h.682s.341 0 0-.34l-.34-.342C2.727 10.636 3.5 9.667 4 9c0 0 .017 1.158 0 2-.008.41.272 1 .682 1h.682s.34 0 0-.34l-.341-.342C4.71 10.75 5.5 8.5 5.5 8.5c1.272 0 1.5.5 3 .5l.364 2.318c.111.71.636.682.636.682H11c.34 0 .961-.311.34-.774L11 11V9c1.214-.172 2-1 2-2h1c.321 0 1 0 1-.5v-1l-1.704-1.682C12.543 3.078 12 2.5 11 2.5c-1.453 0-2.136.569-2.612 1.393z"/></symbol><marker id="arrow-5-10-1" markerWidth="10" markerHeight="5" orient="auto" refX="10" refY="2.5" ><path id="path-arrow-5-10-1" class="arrow-path" d="M 0 0 L 0 5 L 10 2.5 Z" /></marker></defs><g><path class="linestring" d="M23.714765100671173 17.557205934664466L764.956676643025 17.557205934664466L764.9563758389261 524.4079588650882L22.37168809018374 524.406199223255L22.37919463087252 35.58695113970359" stroke="#DD2C00" stroke-opacity="0.4" stroke-width="15" stroke-linecap="round" stroke-linejoin="round" fill="none" /><path class="linestring" d="M164.5750273822563 183.4808937360241L156.33951483516077 214.21624498815555L186.96354582694698 222.09717163147107" stroke="#000000" stroke-opacity="1" stroke-width="0.5" stroke-linecap="round" stroke-linejoin="round" marker-start="url(#arrow-5-10--1)" fill="none" /><use xlink:href="#feature-symbol-3582471067" transform="matrix(0.40252791867668397 -0.2965995190249251 0.2965995190249251 0.40252791867668397 239.33289146055665 246.13535336069233)" width="15" height="15" x="493.0209729908453" y="168.5434952487804" class="symbol"  stroke="none" fill="red" fill-opacity="" fill-rule="evenodd"/><use xlink:href="#feature-symbol-4142036377" transform="matrix(1.7711228421774097 1.3050378837096706 -1.3050378837096706 1.7711228421774097 108.55324758999059 -693.2290502522014)" width="15" height="15" x="343.0209729908453" y="288.5434952487804" class="symbol"  stroke="none" fill="green" fill-opacity="" fill-rule="evenodd"/><path class="polygon" d="M508.69590159388815 231.98963483252552L508.69590159388815 210.34330485689483L553.4814118882965 210.34330485689483L553.4814118882965 231.98963483252552L508.69590159388815 231.98963483252552Z" stroke="none" fill="none"/><text font-family="Helvetica, Arial, sans-serif" class="textbox" font-size="3" fill="#000000" x="508.69590159388815" y="210.34330485689483" ><tspan dy="3.5390625" x="508.69590159388815">Please, add text, more text, </tspan><tspan dy="3.5390625" x="508.69590159388815">more more more of text, more</tspan></text><path class="polygon" d="M608.6959015938882 271.9896348325255L608.6959015938882 210.34330485689483L653.4814118882965 210.34330485689483L653.4814118882965 271.9896348325255L608.6959015938882 271.9896348325255Z" stroke="none" fill="none"/><text font-family="Helvetica, Arial, sans-serif" class="textbox" font-size="8" fill="#000000" x="608.6959015938882" y="210.34330485689483" ><tspan dy="8.12536" x="608.6959015938882">Please, add</tspan><tspan dy="8.12536" x="608.6959015938882"> text, more</tspan><tspan dy="8.12536" x="608.6959015938882"> text, more</tspan><tspan dy="8.12536" x="608.6959015938882"> more more </tspan><tspan dy="8.12536" x="608.6959015938882">of text, mo</tspan><tspan dy="8.12536" x="608.6959015938882">re</tspan></text><g class="geometrycollection"><circle class="point" cx="114.1452" cy="92.42658" r="1"  stroke="red" stroke-width="0.25" stroke-linecap="round" stroke-linejoin="round" fill="#dddddd" fill-opacity="" fill-rule="evenodd" /><path class="linestring" d="M114.1452 92.42658L154.2593452 52.44900658" stroke="blue" stroke-width="1" stroke-linecap="round" stroke-linejoin="round" stroke-dasharray="2,2" fill="#dddddd" fill-opacity="" fill-rule="evenodd" /><circle class="point" cx="154.2593452" cy="52.44900658" r="8"  stroke="#8888dd" stroke-width="2" stroke-linecap="round" stroke-linejoin="round" fill="#0000dd" fill-opacity="0.8" fill-rule="evenodd" /><text font-family="'Lucida Console', Monaco, monospace" class="textbox" font-size="7" fill="#ffffff" x="154.2593452" y="52.44900658" ><tspan dy="2.816" x="152.36903758281252">5</tspan></text></g><path class="linestring" d="M400.99196787148594 80.60250571686748L507.3579631410131 109.10318825146987L492.8813747405273 163.1291759212065" stroke="#000000" stroke-opacity="1" stroke-width="0.5" stroke-linecap="round" stroke-linejoin="round" marker-end="url(#arrow-5-10-1)" fill="none" /><path class="polygon" d="M152.34726996079502,214.46520454933045 A0.5877852522924749,0.5877852522924749 0 1,1 153.0961069546525,215.3714104684684 A0.5877852522924749,0.5877852522924749 0 0,0 153.84494394850995,216.27761638760634 A0.5877852522924749,0.5877852522924749 0 1,1 154.5937809423674,217.18382230674433 A0.5877852522924749,0.5877852522924749 0 0,0 155.34261793622485,218.0900282258822 M155.34261793622485,218.0900282258822 A0.988182259836449,0.988182259836449 0 1,1 157.2566198732115,218.58258614108942 A0.988182259836449,0.988182259836449 0 0,0 159.17062181019813,219.07514405629666 A0.988182259836449,0.988182259836449 0 1,1 161.08462374718476,219.5677019715039 A0.988182259836449,0.988182259836449 0 0,0 162.9986256841714,220.06025988671112 A0.988182259836449,0.988182259836449 0 1,1 164.91262762115807,220.55281780191837 A0.988182259836449,0.988182259836449 0 0,0 166.82662955814473,221.0453757171256 A0.988182259836449,0.988182259836449 0 1,1 168.74063149513137,221.5379336323328 A0.988182259836449,0.988182259836449 0 0,0 170.65463343211803,222.03049154754 A0.988182259836449,0.988182259836449 0 1,1 172.5686353691047,222.52304946274722 A0.988182259836449,0.988182259836449 0 0,0 174.48263730609133,223.0156073779544 A0.988182259836449,0.988182259836449 0 1,1 176.39663924307797,223.50816529316165 A0.988182259836449,0.988182259836449 0 0,0 178.31064118006458,224.00072320836884 A0.988182259836449,0.988182259836449 0 1,1 180.22464311705122,224.49328112357608 A0.988182259836449,0.988182259836449 0 0,0 182.13864505403782,224.98583903878324 A0.988182259836449,0.988182259836449 0 1,1 184.05264699102443,225.47839695399043 A0.988182259836449,0.988182259836449 0 0,0 185.96664892801107,225.9709548691977 M185.96664892801107,225.9709548691977 A0.6180339887498937,0.6180339887498937 0 1,1 187.20032043989636,225.89402213388252 A0.6180339887498937,0.6180339887498937 0 0,0 188.43399195178165,225.81708939856733 M188.43399195178165,225.81708939856733 A0.5877852522924722,0.5877852522924722 0 1,1 189.06444163916444,224.82487006649953 A0.5877852522924722,0.5877852522924722 0 0,0 189.6948913265472,223.83265073443172 A0.5877852522924722,0.5877852522924722 0 1,1 190.32534101392994,222.8404314023639 A0.5877852522924722,0.5877852522924722 0 0,0 190.95579070131274,221.84821207029614 M190.95579070131274,221.84821207029614 A0.5877852522924749,0.5877852522924749 0 1,1 190.20695370745528,220.94200615115818 A0.5877852522924749,0.5877852522924749 0 0,0 189.45811671359778,220.03580023202022 A0.5877852522924749,0.5877852522924749 0 1,1 188.70927971974032,219.1295943128823 A0.5877852522924749,0.5877852522924749 0 0,0 187.9604427258829,218.2233883937444 M187.9604427258829,218.2233883937444 A0.9850697540362026,0.9850697540362026 0 1,1 186.0524693752944,217.73238190222727 A0.9850697540362026,0.9850697540362026 0 0,0 184.14449602470597,217.24137541071016 A0.9850697540362026,0.9850697540362026 0 1,1 182.23652267411748,216.75036891919302 A0.9850697540362026,0.9850697540362026 0 0,0 180.32854932352902,216.2593624276759 A0.9850697540362026,0.9850697540362026 0 1,1 178.42057597294053,215.76835593615877 A0.9850697540362026,0.9850697540362026 0 0,0 176.51260262235206,215.27734944464166 A0.9850697540362026,0.9850697540362026 0 1,1 174.60462927176357,214.78634295312452 A0.9850697540362026,0.9850697540362026 0 0,0 172.6966559211751,214.2953364616074 A0.9850697540362026,0.9850697540362026 0 1,1 170.78868257058664,213.80432997009027 A0.9850697540362026,0.9850697540362026 0 0,0 168.88070921999815,213.3133234785731 A0.9850697540362026,0.9850697540362026 0 1,1 166.97273586940966,212.82231698705598 A0.9850697540362026,0.9850697540362026 0 0,0 165.06476251882117,212.33131049553887 A0.9850697540362026,0.9850697540362026 0 1,1 163.1567891682327,211.84030400402176 A0.9850697540362026,0.9850697540362026 0 0,0 161.2488158176442,211.34929751250462 M161.2488158176442,211.34929751250462 A0.9921320659327211,0.9921320659327211 0 1,1 161.7623811654848,209.43264554135675 A0.9921320659327211,0.9921320659327211 0 0,0 162.27594651332544,207.51599357020888 A0.9921320659327211,0.9921320659327211 0 1,1 162.789511861166,205.59934159906098 A0.9921320659327211,0.9921320659327211 0 0,0 163.3030772090066,203.68268962791308 A0.9921320659327211,0.9921320659327211 0 1,1 163.81664255684717,201.76603765676518 A0.9921320659327211,0.9921320659327211 0 0,0 164.33020790468777,199.84938568561728 A0.9921320659327211,0.9921320659327211 0 1,1 164.84377325252836,197.93273371446938 A0.9921320659327211,0.9921320659327211 0 0,0 165.35733860036896,196.01608174332148 A0.9921320659327211,0.9921320659327211 0 1,1 165.8709039482096,194.09942977217358 A0.9921320659327211,0.9921320659327211 0 0,0 166.3844692960502,192.1827778010257 A0.9921320659327211,0.9921320659327211 0 1,1 166.8980346438908,190.26612582987784 A0.9921320659327211,0.9921320659327211 0 0,0 167.41159999173138,188.34947385872994 A0.9921320659327211,0.9921320659327211 0 1,1 167.92516533957198,186.43282188758207 A0.9921320659327211,0.9921320659327211 0 0,0 168.43873068741257,184.5161699164342 M168.43873068741257,184.5161699164342 A0.6180339887499048,0.6180339887499048 0 1,1 168.37403988782884,183.28179592713855 A0.6180339887499048,0.6180339887499048 0 0,0 168.3093490882451,182.04742193784287 M168.3093490882451,182.04742193784287 A0.5877852522924673,0.5877852522924673 0 1,1 167.32343270550498,181.4071603526336 A0.5877852522924673,0.5877852522924673 0 0,0 166.33751632276486,180.76689876742432 A0.5877852522924673,0.5877852522924673 0 1,1 165.3515999400247,180.12663718221506 A0.5877852522924673,0.5877852522924673 0 0,0 164.36568355728457,179.4863755970058 M164.36568355728457,179.4863755970058 A0.5877852522924722,0.5877852522924722 0 1,1 163.45209368723843,180.22618608665786 A0.5877852522924722,0.5877852522924722 0 0,0 162.53850381719232,180.96599657630992 A0.5877852522924722,0.5877852522924722 0 1,1 161.6249139471462,181.70580706596195 A0.5877852522924722,0.5877852522924722 0 0,0 160.71132407710007,182.445617555614 M160.71132407710007,182.445617555614 A0.9192771551859654,0.9192771551859654 0 1,1 160.24665440397203,184.22448349970935 A0.9192771551859654,0.9192771551859654 0 0,0 159.781984730844,186.0033494438047 A0.9192771551859654,0.9192771551859654 0 1,1 159.31731505771592,187.78221538790004 A0.9192771551859654,0.9192771551859654 0 0,0 158.85264538458787,189.56108133199544 A0.9192771551859654,0.9192771551859654 0 1,1 158.3879757114598,191.33994727609078 A0.9192771551859654,0.9192771551859654 0 0,0 157.92330603833173,193.11881322018615 A0.9192771551859654,0.9192771551859654 0 1,1 157.45863636520366,194.89767916428153 A0.9192771551859654,0.9192771551859654 0 0,0 156.9939666920756,196.67654510837687 A0.9192771551859654,0.9192771551859654 0 1,1 156.52929701894752,198.45541105247224 A0.9192771551859654,0.9192771551859654 0 0,0 156.06462734581947,200.2342769965676 A0.9192771551859654,0.9192771551859654 0 1,1 155.59995767269143,202.01314294066296 A0.9192771551859654,0.9192771551859654 0 0,0 155.13528799956336,203.7920088847583 A0.9192771551859654,0.9192771551859654 0 1,1 154.6706183264353,205.57087482885365 A0.9192771551859654,0.9192771551859654 0 0,0 154.20594865330722,207.349740772949 A0.9192771551859654,0.9192771551859654 0 1,1 153.74127898017917,209.12860671704436 A0.9192771551859654,0.9192771551859654 0 0,0 153.27660930705113,210.90747266113968 A0.9192771551859654,0.9192771551859654 0 1,1 152.81193963392306,212.68633860523505 A0.9192771551859654,0.9192771551859654 0 0,0 152.34726996079502,214.46520454933045 M152.34726996079502,214.46520454933045 M482.94408270036405,168.78793330511024 A0.7653027027157244,0.7653027027157244 0 1,1 483.7463882449836,170.09141277184867 A0.7653027027157244,0.7653027027157244 0 0,0 484.5486937896032,171.39489223858712 A0.7653027027157244,0.7653027027157244 0 1,1 485.3509993342227,172.69837170532554 A0.7653027027157244,0.7653027027157244 0 0,0 486.1533048788423,174.001851172064 A0.7653027027157244,0.7653027027157244 0 1,1 486.9556104234618,175.30533063880242 A0.7653027027157244,0.7653027027157244 0 0,0 487.7579159680813,176.60881010554084 M487.7579159680813,176.60881010554084 A0.9079809994791043,0.9079809994791043 0 1,1 489.38144395150994,177.42236702959997 A0.9079809994791043,0.9079809994791043 0 0,0 491.0049719349385,178.2359239536591 M491.0049719349385,178.2359239536591 A0.7609478458142955,0.7609478458142955 0 1,1 492.28441423844134,177.41179175054782 A0.7609478458142955,0.7609478458142955 0 0,0 493.5638565419441,176.58765954743654 A0.7609478458142955,0.7609478458142955 0 1,1 494.84329884544695,175.76352734432527 A0.7609478458142955,0.7609478458142955 0 0,0 496.1227411489498,174.93939514121396 A0.7609478458142955,0.7609478458142955 0 1,1 497.4021834524527,174.1152629381027 A0.7609478458142955,0.7609478458142955 0 0,0 498.68162575595545,173.29113073499136 A0.7609478458142955,0.7609478458142955 0 1,1 499.9610680594582,172.46699853188002 A0.7609478458142955,0.7609478458142955 0 0,0 501.24051036296106,171.64286632876878 M501.24051036296106,171.64286632876878 A0.9079809994790915,0.9079809994790915 0 1,1 502.0540672870202,170.0193383453402 A0.9079809994790915,0.9079809994790915 0 0,0 502.8676242110793,168.39581036191163 M502.8676242110793,168.39581036191163 A0.765302702715727,0.765302702715727 0 1,1 502.06531866645975,167.0923308951732 A0.765302702715727,0.765302702715727 0 0,0 501.26301312184023,165.78885142843478 A0.765302702715727,0.765302702715727 0 1,1 500.4607075772207,164.48537196169636 A0.765302702715727,0.765302702715727 0 0,0 499.65840203260115,163.18189249495794 A0.765302702715727,0.765302702715727 0 1,1 498.8560964879816,161.8784130282195 A0.765302702715727,0.765302702715727 0 0,0 498.053790943362,160.57493356148103 M498.053790943362,160.57493356148103 A0.9079809994790787,0.9079809994790787 0 1,1 496.43026295993343,159.7613766374219 A0.9079809994790787,0.9079809994790787 0 0,0 494.8067349765049,158.94781971336278 M494.8067349765049,158.94781971336278 A0.7609478458142986,0.7609478458142986 0 1,1 493.5272926730021,159.77195191647408 A0.7609478458142986,0.7609478458142986 0 0,0 492.24785036949925,160.59608411958536 A0.7609478458142986,0.7609478458142986 0 1,1 490.9684080659964,161.42021632269666 A0.7609478458142986,0.7609478458142986 0 0,0 489.6889657624936,162.24434852580796 A0.7609478458142986,0.7609478458142986 0 1,1 488.4095234589908,163.06848072891927 A0.7609478458142986,0.7609478458142986 0 0,0 487.130081155488,163.89261293203057 A0.7609478458142986,0.7609478458142986 0 1,1 485.8506388519852,164.71674513514182 A0.7609478458142986,0.7609478458142986 0 0,0 484.5711965484823,165.5408773382531 M484.5711965484823,165.5408773382531 A0.9079809994790915,0.9079809994790915 0 1,1 483.7576396244232,167.16440532168167 A0.9079809994790915,0.9079809994790915 0 0,0 482.94408270036405,168.78793330511024 M482.94408270036405,168.78793330511024 M504.69590159388815,210.34330485689486 A0.9019304156512765,0.9019304156512765 0 1,1 504.6959015938882,212.14716568819742 A0.9019304156512765,0.9019304156512765 0 0,0 504.69590159388815,213.95102651949995 A0.9019304156512765,0.9019304156512765 0 1,1 504.6959015938882,215.7548873508025 A0.9019304156512765,0.9019304156512765 0 0,0 504.69590159388827,217.5587481821051 A0.9019304156512765,0.9019304156512765 0 1,1 504.6959015938883,219.36260901340768 A0.9019304156512765,0.9019304156512765 0 0,0 504.69590159388827,221.16646984471026 A0.9019304156512765,0.9019304156512765 0 1,1 504.6959015938882,222.97033067601282 A0.9019304156512765,0.9019304156512765 0 0,0 504.6959015938882,224.77419150731538 A0.9019304156512765,0.9019304156512765 0 1,1 504.69590159388815,226.57805233861794 A0.9019304156512765,0.9019304156512765 0 0,0 504.6959015938882,228.38191316992052 A0.9019304156512765,0.9019304156512765 0 1,1 504.6959015938882,230.18577400122305 A0.9019304156512765,0.9019304156512765 0 0,0 504.69590159388815,231.9896348325255 M504.69590159388815,231.9896348325255 A0.5877852522924787,0.5877852522924787 0 1,1 505.3868845995132,232.94069134882065 A0.5877852522924787,0.5877852522924787 0 0,0 506.07786760513835,233.8917478651158 A0.5877852522924787,0.5877852522924787 0 1,1 506.7688506107634,234.842804381411 A0.5877852522924787,0.5877852522924787 0 0,0 507.45983361638844,235.7938608977061 M507.45983361638844,235.7938608977061 A0.9587915557756093,0.9587915557756093 0 1,1 509.37739937771795,235.80201814499026 A0.9587915557756093,0.9587915557756093 0 0,0 511.29496513904746,235.8101753922744 A0.9587915557756093,0.9587915557756093 0 1,1 513.2125309003769,235.81833263955852 A0.9587915557756093,0.9587915557756093 0 0,0 515.1300966617064,235.82648988684264 A0.9587915557756093,0.9587915557756093 0 1,1 517.047662423036,235.83464713412678 A0.9587915557756093,0.9587915557756093 0 0,0 518.9652281843655,235.8428043814109 A0.9587915557756093,0.9587915557756093 0 1,1 520.8827939456951,235.85096162869507 A0.9587915557756093,0.9587915557756093 0 0,0 522.8003597070247,235.85911887597922 A0.9587915557756093,0.9587915557756093 0 1,1 524.7179254683542,235.86727612326337 A0.9587915557756093,0.9587915557756093 0 0,0 526.6354912296837,235.8754333705475 A0.9587915557756093,0.9587915557756093 0 1,1 528.5530569910131,235.88359061783166 A0.9587915557756093,0.9587915557756093 0 0,0 530.4706227523426,235.8917478651158 A0.9587915557756093,0.9587915557756093 0 1,1 532.388188513672,235.89990511239992 A0.9587915557756093,0.9587915557756093 0 0,0 534.3057542750015,235.90806235968407 A0.9587915557756093,0.9587915557756093 0 1,1 536.2233200363311,235.9162196069682 A0.9587915557756093,0.9587915557756093 0 0,0 538.1408857976606,235.92437685425236 A0.9587915557756093,0.9587915557756093 0 1,1 540.0584515589901,235.93253410153648 A0.9587915557756093,0.9587915557756093 0 0,0 541.9760173203196,235.94069134882062 A0.9587915557756093,0.9587915557756093 0 1,1 543.8935830816491,235.94884859610477 A0.9587915557756093,0.9587915557756093 0 0,0 545.8111488429787,235.95700584338888 A0.9587915557756093,0.9587915557756093 0 1,1 547.7287146043082,235.965163090673 A0.9587915557756093,0.9587915557756093 0 0,0 549.6462803656376,235.97332033795718 A0.9587915557756093,0.9587915557756093 0 1,1 551.5638461269671,235.98147758524132 A0.9587915557756093,0.9587915557756093 0 0,0 553.4814118882965,235.9896348325255 M553.4814118882965,235.9896348325255 A0.5877852522924724,0.5877852522924724 0 1,1 554.4324684045915,235.29865182690043 A0.5877852522924724,0.5877852522924724 0 0,0 555.3835249208867,234.6076688212754 A0.5877852522924724,0.5877852522924724 0 1,1 556.3345814371818,233.91668581565042 A0.5877852522924724,0.5877852522924724 0 0,0 557.2856379534771,233.2257028100253 M557.2856379534771,233.2257028100253 A0.9534681427110715,0.9534681427110715 0 1,1 557.3019524480454,231.31883631393112 A0.9534681427110715,0.9534681427110715 0 0,0 557.3182669426137,229.4119698178369 A0.9534681427110715,0.9534681427110715 0 1,1 557.334581437182,227.50510332174272 A0.9534681427110715,0.9534681427110715 0 0,0 557.3508959317502,225.59823682564848 A0.9534681427110715,0.9534681427110715 0 1,1 557.3672104263185,223.6913703295543 A0.9534681427110715,0.9534681427110715 0 0,0 557.3835249208868,221.78450383346012 A0.9534681427110715,0.9534681427110715 0 1,1 557.3998394154551,219.87763733736594 A0.9534681427110715,0.9534681427110715 0 0,0 557.4161539100234,217.97077084127176 A0.9534681427110715,0.9534681427110715 0 1,1 557.4324684045916,216.0639043451776 A0.9534681427110715,0.9534681427110715 0 0,0 557.4487828991599,214.1570378490834 A0.9534681427110715,0.9534681427110715 0 1,1 557.4650973937281,212.25017135298918 A0.9534681427110715,0.9534681427110715 0 0,0 557.4814118882965,210.34330485689486 M557.4814118882965,210.34330485689486 A0.5877852522924703,0.5877852522924703 0 1,1 556.7904288826714,209.3922483405997 A0.5877852522924703,0.5877852522924703 0 0,0 556.0994458770464,208.44119182430452 A0.5877852522924703,0.5877852522924703 0 1,1 555.4084628714213,207.49013530800937 A0.5877852522924703,0.5877852522924703 0 0,0 554.7174798657963,206.53907879171425 M554.7174798657963,206.53907879171425 A0.9587915557756116,0.9587915557756116 0 1,1 552.7999141044669,206.5309215444301 A0.9587915557756116,0.9587915557756116 0 0,0 550.8823483431374,206.52276429714595 A0.9587915557756116,0.9587915557756116 0 1,1 548.9647825818079,206.51460704986184 A0.9587915557756116,0.9587915557756116 0 0,0 547.0472168204783,206.5064498025777 A0.9587915557756116,0.9587915557756116 0 1,1 545.1296510591488,206.49829255529357 A0.9587915557756116,0.9587915557756116 0 0,0 543.2120852978193,206.49013530800943 A0.9587915557756116,0.9587915557756116 0 1,1 541.2945195364898,206.48197806072528 A0.9587915557756116,0.9587915557756116 0 0,0 539.3769537751604,206.4738208134411 A0.9587915557756116,0.9587915557756116 0 1,1 537.4593880138308,206.46566356615696 A0.9587915557756116,0.9587915557756116 0 0,0 535.5418222525013,206.45750631887282 A0.9587915557756116,0.9587915557756116 0 1,1 533.6242564911719,206.4493490715887 A0.9587915557756116,0.9587915557756116 0 0,0 531.7066907298424,206.44119182430458 A0.9587915557756116,0.9587915557756116 0 1,1 529.7891249685129,206.43303457702044 A0.9587915557756116,0.9587915557756116 0 0,0 527.8715592071833,206.4248773297363 A0.9587915557756116,0.9587915557756116 0 1,1 525.9539934458537,206.41672008245217 A0.9587915557756116,0.9587915557756116 0 0,0 524.0364276845241,206.408562835168 A0.9587915557756116,0.9587915557756116 0 1,1 522.1188619231947,206.40040558788388 A0.9587915557756116,0.9587915557756116 0 0,0 520.2012961618651,206.39224834059974 A0.9587915557756116,0.9587915557756116 0 1,1 518.2837304005355,206.38409109331562 A0.9587915557756116,0.9587915557756116 0 0,0 516.366164639206,206.37593384603144 A0.9587915557756116,0.9587915557756116 0 1,1 514.4485988778764,206.3677765987473 A0.9587915557756116,0.9587915557756116 0 0,0 512.531033116547,206.35961935146318 A0.9587915557756116,0.9587915557756116 0 1,1 510.6134673552173,206.35146210417898 A0.9587915557756116,0.9587915557756116 0 0,0 508.69590159388815,206.34330485689486 M508.69590159388815,206.34330485689486 A0.6180339887498998,0.6180339887498998 0 1,1 507.5203310893032,206.72527086814497 A0.6180339887498998,0.6180339887498998 0 0,0 506.34476058471824,207.1072368793951 M506.34476058471824,207.1072368793951 A0.907980999479088,0.907980999479088 0 1,1 505.5203310893032,208.72527086814497 A0.907980999479088,0.907980999479088 0 0,0 504.69590159388815,210.34330485689486 M504.69590159388815,210.34330485689486 M604.6959015938882,210.34330485689486 A0.9412063281782175,0.9412063281782175 0 1,1 604.7183701827852,212.22558341527133 A0.9412063281782175,0.9412063281782175 0 0,0 604.7408387716822,214.1078619736478 A0.9412063281782175,0.9412063281782175 0 1,1 604.7633073605793,215.99014053202427 A0.9412063281782175,0.9412063281782175 0 0,0 604.7857759494765,217.87241909040077 A0.9412063281782175,0.9412063281782175 0 1,1 604.8082445383735,219.75469764877724 A0.9412063281782175,0.9412063281782175 0 0,0 604.8307131272705,221.63697620715374 A0.9412063281782175,0.9412063281782175 0 1,1 604.8531817161676,223.51925476553023 A0.9412063281782175,0.9412063281782175 0 0,0 604.8756503050645,225.40153332390668 A0.9412063281782175,0.9412063281782175 0 1,1 604.8981188939615,227.28381188228315 A0.9412063281782175,0.9412063281782175 0 0,0 604.9205874828585,229.16609044065964 A0.9412063281782175,0.9412063281782175 0 1,1 604.9430560717556,231.04836899903611 A0.9412063281782175,0.9412063281782175 0 0,0 604.9655246606526,232.93064755741258 A0.9412063281782175,0.9412063281782175 0 1,1 604.9879932495496,234.81292611578908 A0.9412063281782175,0.9412063281782175 0 0,0 605.0104618384468,236.69520467416558 A0.9412063281782175,0.9412063281782175 0 1,1 605.0329304273438,238.57748323254205 A0.9412063281782175,0.9412063281782175 0 0,0 605.0553990162408,240.45976179091855 A0.9412063281782175,0.9412063281782175 0 1,1 605.0778676051378,242.34204034929502 A0.9412063281782175,0.9412063281782175 0 0,0 605.1003361940349,244.2243189076715 A0.9412063281782175,0.9412063281782175 0 1,1 605.1228047829319,246.106597466048 A0.9412063281782175,0.9412063281782175 0 0,0 605.1452733718289,247.98887602442448 A0.9412063281782175,0.9412063281782175 0 1,1 605.167741960726,249.87115458280095 A0.9412063281782175,0.9412063281782175 0 0,0 605.1902105496231,251.75343314117742 A0.9412063281782175,0.9412063281782175 0 1,1 605.2126791385201,253.6357116995539 A0.9412063281782175,0.9412063281782175 0 0,0 605.2351477274171,255.51799025793036 A0.9412063281782175,0.9412063281782175 0 1,1 605.2576163163143,257.4002688163069 A0.9412063281782175,0.9412063281782175 0 0,0 605.2800849052113,259.28254737468336 A0.9412063281782175,0.9412063281782175 0 1,1 605.3025534941085,261.16482593305983 A0.9412063281782175,0.9412063281782175 0 0,0 605.3250220830057,263.0471044914363 A0.9412063281782175,0.9412063281782175 0 1,1 605.3474906719028,264.92938304981277 A0.9412063281782175,0.9412063281782175 0 0,0 605.3699592608,266.81166160818924 A0.9412063281782175,0.9412063281782175 0 1,1 605.392427849697,268.69394016656577 A0.9412063281782175,0.9412063281782175 0 0,0 605.414896438594,270.57621872494224 A0.9412063281782175,0.9412063281782175 0 1,1 605.4373650274912,272.4584972833187 A0.9412063281782175,0.9412063281782175 0 0,0 605.4598336163883,274.3407758416954 M605.4598336163883,274.3407758416954 A0.9079809994791006,0.9079809994791006 0 1,1 607.0778676051382,275.1652053371105 A0.9079809994791006,0.9079809994791006 0 0,0 608.6959015938882,275.9896348325255 M608.6959015938882,275.9896348325255 A0.9821425276165394,0.9821425276165394 0 1,1 610.6599287315373,275.957804331588 A0.9821425276165394,0.9821425276165394 0 0,0 612.6239558691865,275.92597383065055 A0.9821425276165394,0.9821425276165394 0 1,1 614.5879830068355,275.894143329713 A0.9821425276165394,0.9821425276165394 0 0,0 616.5520101444847,275.86231282877554 A0.9821425276165394,0.9821425276165394 0 1,1 618.5160372821339,275.83048232783807 A0.9821425276165394,0.9821425276165394 0 0,0 620.4800644197829,275.79865182690054 A0.9821425276165394,0.9821425276165394 0 1,1 622.444091557432,275.766821325963 A0.9821425276165394,0.9821425276165394 0 0,0 624.4081186950809,275.7349908250255 A0.9821425276165394,0.9821425276165394 0 1,1 626.3721458327301,275.703160324088 A0.9821425276165394,0.9821425276165394 0 0,0 628.3361729703793,275.67132982315053 A0.9821425276165394,0.9821425276165394 0 1,1 630.3002001080283,275.639499322213 A0.9821425276165394,0.9821425276165394 0 0,0 632.2642272456774,275.60766882127547 A0.9821425276165394,0.9821425276165394 0 1,1 634.2282543833265,275.575838320338 A0.9821425276165394,0.9821425276165394 0 0,0 636.1922815209756,275.54400781940046 A0.9821425276165394,0.9821425276165394 0 1,1 638.1563086586247,275.51217731846293 A0.9821425276165394,0.9821425276165394 0 0,0 640.1203357962737,275.4803468175254 A0.9821425276165394,0.9821425276165394 0 1,1 642.0843629339228,275.44851631658787 A0.9821425276165394,0.9821425276165394 0 0,0 644.0483900715718,275.41668581565034 A0.9821425276165394,0.9821425276165394 0 1,1 646.012417209221,275.3848553147128 A0.9821425276165394,0.9821425276165394 0 0,0 647.97644434687,275.35302481377533 A0.9821425276165394,0.9821425276165394 0 1,1 649.9404714845191,275.3211943128378 A0.9821425276165394,0.9821425276165394 0 0,0 651.9044986221683,275.2893638119003 A0.9821425276165394,0.9821425276165394 0 1,1 653.8685257598173,275.25753331096274 A0.9821425276165394,0.9821425276165394 0 0,0 655.8325528974664,275.22570281002527 M655.8325528974664,275.22570281002527 A0.9079809994791074,0.9079809994791074 0 1,1 656.6569823928814,273.6076688212754 A0.9079809994791074,0.9079809994791074 0 0,0 657.4814118882966,271.9896348325255 M657.4814118882966,271.9896348325255 A0.9412063281782167,0.9412063281782167 0 1,1 657.4589432993995,270.107356274149 A0.9412063281782167,0.9412063281782167 0 0,0 657.4364747105025,268.2250777157725 A0.9412063281782167,0.9412063281782167 0 1,1 657.4140061216054,266.34279915739603 A0.9412063281782167,0.9412063281782167 0 0,0 657.3915375327083,264.4605205990195 A0.9412063281782167,0.9412063281782167 0 1,1 657.3690689438113,262.57824204064303 A0.9412063281782167,0.9412063281782167 0 0,0 657.3466003549141,260.69596348226656 A0.9412063281782167,0.9412063281782167 0 1,1 657.3241317660171,258.8136849238901 A0.9412063281782167,0.9412063281782167 0 0,0 657.3016631771201,256.9314063655136 A0.9412063281782167,0.9412063281782167 0 1,1 657.2791945882229,255.0491278071371 A0.9412063281782167,0.9412063281782167 0 0,0 657.2567259993259,253.16684924876063 A0.9412063281782167,0.9412063281782167 0 1,1 657.2342574104289,251.28457069038416 A0.9412063281782167,0.9412063281782167 0 0,0 657.2117888215319,249.40229213200766 A0.9412063281782167,0.9412063281782167 0 1,1 657.1893202326347,247.52001357363116 A0.9412063281782167,0.9412063281782167 0 0,0 657.1668516437377,245.6377350152547 A0.9412063281782167,0.9412063281782167 0 1,1 657.1443830548407,243.75545645687822 A0.9412063281782167,0.9412063281782167 0 0,0 657.1219144659436,241.87317789850172 A0.9412063281782167,0.9412063281782167 0 1,1 657.0994458770466,239.99089934012525 A0.9412063281782167,0.9412063281782167 0 0,0 657.0769772881495,238.10862078174875 A0.9412063281782167,0.9412063281782167 0 1,1 657.0545086992523,236.22634222337228 A0.9412063281782167,0.9412063281782167 0 0,0 657.0320401103553,234.34406366499582 A0.9412063281782167,0.9412063281782167 0 1,1 657.0095715214583,232.46178510661935 A0.9412063281782167,0.9412063281782167 0 0,0 656.9871029325611,230.57950654824285 A0.9412063281782167,0.9412063281782167 0 1,1 656.9646343436641,228.69722798986638 A0.9412063281782167,0.9412063281782167 0 0,0 656.942165754767,226.81494943148988 A0.9412063281782167,0.9412063281782167 0 1,1 656.9196971658699,224.9326708731134 A0.9412063281782167,0.9412063281782167 0 0,0 656.8972285769729,223.0503923147369 A0.9412063281782167,0.9412063281782167 0 1,1 656.8747599880759,221.16811375636044 A0.9412063281782167,0.9412063281782167 0 0,0 656.8522913991787,219.28583519798394 A0.9412063281782167,0.9412063281782167 0 1,1 656.8298228102817,217.40355663960744 A0.9412063281782167,0.9412063281782167 0 0,0 656.8073542213846,215.52127808123095 A0.9412063281782167,0.9412063281782167 0 1,1 656.7848856324875,213.63899952285448 A0.9412063281782167,0.9412063281782167 0 0,0 656.7624170435905,211.75672096447798 A0.9412063281782167,0.9412063281782167 0 1,1 656.7399484546933,209.87444240610148 A0.9412063281782167,0.9412063281782167 0 0,0 656.7174798657963,207.992163847725 M656.7174798657963,207.992163847725 A0.907980999479107,0.907980999479107 0 1,1 655.0994458770465,207.16773435230994 A0.907980999479107,0.907980999479107 0 0,0 653.4814118882965,206.34330485689486 M653.4814118882965,206.34330485689486 A0.933031464466841,0.933031464466841 0 1,1 651.6153489593629,206.34330485689486 A0.933031464466841,0.933031464466841 0 0,0 649.7492860304292,206.34330485689486 A0.933031464466841,0.933031464466841 0 1,1 647.8832231014954,206.34330485689486 A0.933031464466841,0.933031464466841 0 0,0 646.0171601725618,206.34330485689486 A0.933031464466841,0.933031464466841 0 1,1 644.1510972436282,206.34330485689486 A0.933031464466841,0.933031464466841 0 0,0 642.2850343146945,206.34330485689486 A0.933031464466841,0.933031464466841 0 1,1 640.4189713857609,206.34330485689486 A0.933031464466841,0.933031464466841 0 0,0 638.5529084568273,206.34330485689486 A0.933031464466841,0.933031464466841 0 1,1 636.6868455278935,206.34330485689486 A0.933031464466841,0.933031464466841 0 0,0 634.8207825989599,206.3433048568949 A0.933031464466841,0.933031464466841 0 1,1 632.9547196700263,206.3433048568949 A0.933031464466841,0.933031464466841 0 0,0 631.0886567410926,206.3433048568949 A0.933031464466841,0.933031464466841 0 1,1 629.2225938121588,206.3433048568949 A0.933031464466841,0.933031464466841 0 0,0 627.3565308832252,206.3433048568949 A0.933031464466841,0.933031464466841 0 1,1 625.4904679542916,206.3433048568949 A0.933031464466841,0.933031464466841 0 0,0 623.624405025358,206.34330485689492 A0.933031464466841,0.933031464466841 0 1,1 621.7583420964243,206.3433048568949 A0.933031464466841,0.933031464466841 0 0,0 619.8922791674906,206.3433048568949 A0.933031464466841,0.933031464466841 0 1,1 618.0262162385569,206.3433048568949 A0.933031464466841,0.933031464466841 0 0,0 616.1601533096233,206.34330485689492 A0.933031464466841,0.933031464466841 0 1,1 614.2940903806896,206.3433048568949 A0.933031464466841,0.933031464466841 0 0,0 612.4280274517558,206.3433048568949 A0.933031464466841,0.933031464466841 0 1,1 610.5619645228221,206.34330485689486 A0.933031464466841,0.933031464466841 0 0,0 608.6959015938882,206.34330485689486 M608.6959015938882,206.34330485689486 A0.907980999479107,0.907980999479107 0 1,1 607.0778676051382,207.16773435230994 A0.907980999479107,0.907980999479107 0 0,0 605.4598336163883,207.992163847725 M605.4598336163883,207.992163847725 A0.6180339887498819,0.6180339887498819 0 1,1 605.0778676051382,209.16773435230994 A0.6180339887498819,0.6180339887498819 0 0,0 604.6959015938882,210.34330485689486 M604.6959015938882,210.34330485689486" stroke="#333333" stroke-width="0.25" stroke-linecap="round" stroke-linejoin="round" fill="none"/></g></svg>